<mxfile host="65bd71144e">
    <diagram id="XHk-bZ8t28PDqSV33KaL" name="Page-1">
        <mxGraphModel dx="431" dy="319" grid="1" gridSize="10" guides="1" tooltips="1" connect="1" arrows="1" fold="1" page="1" pageScale="1" pageWidth="850" pageHeight="1100" math="0" shadow="0">
            <root>
                <mxCell id="0"/>
                <mxCell id="1" parent="0"/>
                <mxCell id="73" value="" style="strokeWidth=2;html=1;shape=mxgraph.flowchart.terminator;whiteSpace=wrap;" vertex="1" parent="1">
                    <mxGeometry x="40" y="40" width="100" height="60" as="geometry"/>
                </mxCell>
                <mxCell id="74" value="Start / Stop" style="text;html=1;align=left;verticalAlign=middle;resizable=0;points=[];autosize=1;strokeColor=none;fillColor=none;fontSize=20;" vertex="1" parent="1">
                    <mxGeometry x="160" y="55" width="120" height="30" as="geometry"/>
                </mxCell>
                <mxCell id="75" value="- Every flowchart must start&lt;br&gt;and end with one of these" style="text;html=1;align=left;verticalAlign=middle;resizable=0;points=[];autosize=1;strokeColor=none;fillColor=none;" vertex="1" parent="1">
                    <mxGeometry x="280" y="55" width="160" height="30" as="geometry"/>
                </mxCell>
                <mxCell id="76" value="" style="rounded=1;whiteSpace=wrap;html=1;absoluteArcSize=1;arcSize=14;strokeWidth=2;fontSize=20;" vertex="1" parent="1">
                    <mxGeometry x="40" y="140" width="100" height="50" as="geometry"/>
                </mxCell>
                <mxCell id="77" value="Process" style="text;html=1;align=left;verticalAlign=middle;resizable=0;points=[];autosize=1;strokeColor=none;fillColor=none;fontSize=20;" vertex="1" parent="1">
                    <mxGeometry x="160" y="150" width="90" height="30" as="geometry"/>
                </mxCell>
                <mxCell id="79" value="- Doing something, also known&lt;br&gt;as a process" style="text;html=1;align=left;verticalAlign=middle;resizable=0;points=[];autosize=1;strokeColor=none;fillColor=none;" vertex="1" parent="1">
                    <mxGeometry x="280" y="150" width="180" height="30" as="geometry"/>
                </mxCell>
                <mxCell id="80" value="" style="strokeWidth=2;html=1;shape=mxgraph.flowchart.decision;whiteSpace=wrap;fontSize=20;" vertex="1" parent="1">
                    <mxGeometry x="30" y="240" width="100" height="100" as="geometry"/>
                </mxCell>
                <mxCell id="81" value="Decision" style="text;html=1;align=left;verticalAlign=middle;resizable=0;points=[];autosize=1;strokeColor=none;fillColor=none;fontSize=20;" vertex="1" parent="1">
                    <mxGeometry x="160" y="275" width="90" height="30" as="geometry"/>
                </mxCell>
                <mxCell id="82" value="- Answering a &quot;yes&quot; or &quot;no&quot;&lt;br&gt;question. There are usually 2&lt;br&gt;branches and you take 1 of them." style="text;html=1;align=left;verticalAlign=middle;resizable=0;points=[];autosize=1;strokeColor=none;fillColor=none;" vertex="1" parent="1">
                    <mxGeometry x="275" y="265" width="190" height="50" as="geometry"/>
                </mxCell>
                <mxCell id="83" value="" style="shape=parallelogram;html=1;strokeWidth=2;perimeter=parallelogramPerimeter;whiteSpace=wrap;rounded=1;arcSize=12;size=0.23;fontSize=20;" vertex="1" parent="1">
                    <mxGeometry x="30" y="390" width="100" height="60" as="geometry"/>
                </mxCell>
                <mxCell id="84" value="Input / &lt;br&gt;Output" style="text;html=1;align=left;verticalAlign=middle;resizable=0;points=[];autosize=1;strokeColor=none;fillColor=none;fontSize=20;" vertex="1" parent="1">
                    <mxGeometry x="160" y="395" width="80" height="50" as="geometry"/>
                </mxCell>
                <mxCell id="85" value="- Getting data from the user or&lt;br&gt;presenting data back to a user" style="text;html=1;align=left;verticalAlign=middle;resizable=0;points=[];autosize=1;strokeColor=none;fillColor=none;" vertex="1" parent="1">
                    <mxGeometry x="275" y="405" width="180" height="30" as="geometry"/>
                </mxCell>
                <mxCell id="86" value="" style="verticalLabelPosition=bottom;verticalAlign=top;html=1;shape=offPageConnector;rounded=0;size=0.5;fontSize=20;strokeWidth=2;" vertex="1" parent="1">
                    <mxGeometry x="40" y="510" width="60" height="60" as="geometry"/>
                </mxCell>
                <mxCell id="88" value="" style="verticalLabelPosition=bottom;verticalAlign=top;html=1;shape=mxgraph.flowchart.on-page_reference;fontSize=20;strokeWidth=2;" vertex="1" parent="1">
                    <mxGeometry x="130" y="510" width="60" height="60" as="geometry"/>
                </mxCell>
                <mxCell id="89" value="Connectors" style="text;html=1;align=left;verticalAlign=middle;resizable=0;points=[];autosize=1;strokeColor=none;fillColor=none;fontSize=20;" vertex="1" parent="1">
                    <mxGeometry x="222.5" y="525" width="120" height="30" as="geometry"/>
                </mxCell>
                <mxCell id="90" value="- Used if the flowchart&lt;br&gt;is longer than 1 page" style="text;html=1;align=left;verticalAlign=middle;resizable=0;points=[];autosize=1;strokeColor=none;fillColor=none;" vertex="1" parent="1">
                    <mxGeometry x="337.5" y="525" width="130" height="30" as="geometry"/>
                </mxCell>
            </root>
        </mxGraphModel>
    </diagram>
</mxfile>